#Comment line ignore any data following # character 
#Hierarchical Translation and Rotation (.htr) file 
[Header]	
#Header keywords are followed by a single value 
FileType HTR		#Single word string
DataType HTRS		#Translation followed by rotation and scale data
FileVersion 1		#integer
NumSegments 84		#integer
NumFrames 2		#integer
DataFrameRate 30		#integer, data frame rate in this file
EulerRotationOrder ZYX
CalibrationUnits mm
RotationUnits Degrees
GlobalAxisofGravity Y
BoneLengthAxis Y
ScaleFactor 1.00
[SegmentNames&Hierarchy]
#CHILD	PARENT
MASTER GLOBAL
root MASTER
chest root
L_mid_tent01 root
R_mid_tent01 root
spine01 root
Bip01_Neck chest
L_humerus chest
R_humerus chest
weapon_bone chest
Bip01_Head Bip01_Neck
eye_left_bone Bip01_Head
eye_right_bone Bip01_Head
L_forearm L_humerus
L_front_hand L_forearm
L_weapon_bone L_forearm
L_front_hand01_01 L_front_hand
L_front_hand02_01 L_front_hand
L_front_hand03_01 L_front_hand
L_front_hand01_02 L_front_hand01_01
L_front_hand02_02 L_front_hand02_01
L_front_hand03_02 L_front_hand03_01
R_forearm R_humerus
R_front_hand R_forearm
R_weapon_bone R_forearm
R_front_hand01_01 R_front_hand
R_front_hand02_01 R_front_hand
R_front_hand03_01 R_front_hand
R_front_hand01_02 R_front_hand01_01
R_front_hand02_02 R_front_hand02_01
R_front_hand03_02 R_front_hand03_01
null_rope01_connect L_mid_tent01
Rope1_Seg01 null_rope01_connect
Rope1_Seg02 Rope1_Seg01
Rope1_Seg03 Rope1_Seg02
Rope1_Seg04 Rope1_Seg03
Rope1_Seg05 Rope1_Seg04
Rope1_Seg06 Rope1_Seg05
Rope1_Seg07 Rope1_Seg06
Rope1_Seg09 Rope1_Seg07
L_mid_hand01 Rope1_Seg09
L_mid_hand02 Rope1_Seg09
L_mid_hand03 Rope1_Seg09
null_rope02_connect R_mid_tent01
Rope2_Seg01 null_rope02_connect
Rope2_Seg02 Rope2_Seg01
Rope2_Seg03 Rope2_Seg02
Rope2_Seg04 Rope2_Seg03
Rope2_Seg05 Rope2_Seg04
Rope2_Seg06 Rope2_Seg05
Rope2_Seg07 Rope2_Seg06
Rope2_Seg09 Rope2_Seg07
R_mid_hand01 Rope2_Seg09
R_mid_hand02 Rope2_Seg09
R_mid_hand03 Rope2_Seg09
spine02 spine01
spine03 spine02
pelvis spine03
null_rope03_connect pelvis
null_rope04_connect pelvis
Rope3_Seg01 null_rope03_connect
Rope3_Seg02 Rope3_Seg01
Rope3_Seg03 Rope3_Seg02
Rope3_Seg04 Rope3_Seg03
Rope3_Seg05 Rope3_Seg04
Rope3_Seg06 Rope3_Seg05
Rope3_Seg07 Rope3_Seg06
Rope3_Seg08 Rope3_Seg07
Rope3_Seg09 Rope3_Seg08
R_rear_hand01 Rope3_Seg09
R_rear_hand02 Rope3_Seg09
R_rear_hand03 Rope3_Seg09
Rope4_Seg01 null_rope04_connect
Rope4_Seg02 Rope4_Seg01
Rope4_Seg03 Rope4_Seg02
Rope4_Seg04 Rope4_Seg03
Rope4_Seg05 Rope4_Seg04
Rope4_Seg06 Rope4_Seg05
Rope4_Seg07 Rope4_Seg06
Rope4_Seg08 Rope4_Seg07
Rope4_Seg09 Rope4_Seg08
L_rear_hand01 Rope4_Seg09
L_rear_hand02 Rope4_Seg09
L_rear_hand03 Rope4_Seg09
[BasePosition]
#SegmentName Tx, Ty, Tz, Rx, Ry, Rz, BoneLength
MASTER 0.000000 0.000000 0.000000 -90.000000 0.000000 0.000000 10.000000 
root 0.000000 0.000000 0.000000 0.000000 0.000000 0.000000 10.000000 
chest 0.000000 0.000000 0.000000 0.000000 0.000000 0.000000 10.000000 
L_mid_tent01 0.000000 0.000000 0.000000 0.000000 0.000000 0.000000 10.000000 
R_mid_tent01 0.000000 0.000000 0.000000 0.000000 0.000000 0.000000 10.000000 
spine01 0.000000 0.000000 0.000000 0.000000 0.000000 0.000000 10.000000 
Bip01_Neck 0.000000 0.000000 0.000000 0.000000 0.000000 0.000000 10.000000 
L_humerus 0.000000 0.000000 0.000000 0.000000 0.000000 0.000000 10.000000 
R_humerus 0.000000 0.000000 0.000000 0.000000 0.000000 0.000000 10.000000 
weapon_bone 0.000000 0.000000 0.000000 0.000000 0.000000 0.000000 10.000000 
Bip01_Head 0.000000 0.000000 0.000000 0.000000 0.000000 0.000000 10.000000 
eye_left_bone 0.000000 0.000000 0.000000 0.000000 0.000000 0.000000 10.000000 
eye_right_bone 0.000000 0.000000 0.000000 0.000000 0.000000 0.000000 10.000000 
L_forearm 0.000000 0.000000 0.000000 0.000000 0.000000 0.000000 10.000000 
L_front_hand 0.000000 0.000000 0.000000 0.000000 0.000000 0.000000 10.000000 
L_weapon_bone 0.000000 0.000000 0.000000 0.000000 0.000000 0.000000 10.000000 
L_front_hand01_01 0.000000 0.000000 0.000000 0.000000 0.000000 0.000000 10.000000 
L_front_hand02_01 0.000000 0.000000 0.000000 0.000000 0.000000 0.000000 10.000000 
L_front_hand03_01 0.000000 0.000000 0.000000 0.000000 0.000000 0.000000 10.000000 
L_front_hand01_02 0.000000 0.000000 0.000000 0.000000 0.000000 0.000000 10.000000 
L_front_hand02_02 0.000000 0.000000 0.000000 0.000000 0.000000 0.000000 10.000000 
L_front_hand03_02 0.000000 0.000000 0.000000 0.000000 0.000000 0.000000 10.000000 
R_forearm 0.000000 0.000000 0.000000 0.000000 0.000000 0.000000 10.000000 
R_front_hand 0.000000 0.000000 0.000000 0.000000 0.000000 0.000000 10.000000 
R_weapon_bone 0.000000 0.000000 0.000000 0.000000 0.000000 0.000000 10.000000 
R_front_hand01_01 0.000000 0.000000 0.000000 0.000000 0.000000 0.000000 10.000000 
R_front_hand02_01 0.000000 0.000000 0.000000 0.000000 0.000000 0.000000 10.000000 
R_front_hand03_01 0.000000 0.000000 0.000000 0.000000 0.000000 0.000000 10.000000 
R_front_hand01_02 0.000000 0.000000 0.000000 0.000000 0.000000 0.000000 10.000000 
R_front_hand02_02 0.000000 0.000000 0.000000 0.000000 0.000000 0.000000 10.000000 
R_front_hand03_02 0.000000 0.000000 0.000000 0.000000 0.000000 0.000000 10.000000 
null_rope01_connect 0.000000 0.000000 0.000000 0.000000 0.000000 0.000000 10.000000 
Rope1_Seg01 0.000000 0.000000 0.000000 0.000000 0.000000 0.000000 10.000000 
Rope1_Seg02 0.000000 0.000000 0.000000 0.000000 0.000000 0.000000 10.000000 
Rope1_Seg03 0.000000 0.000000 0.000000 0.000000 0.000000 0.000000 10.000000 
Rope1_Seg04 0.000000 0.000000 0.000000 0.000000 0.000000 0.000000 10.000000 
Rope1_Seg05 0.000000 0.000000 0.000000 0.000000 0.000000 0.000000 10.000000 
Rope1_Seg06 0.000000 0.000000 0.000000 0.000000 0.000000 0.000000 10.000000 
Rope1_Seg07 0.000000 0.000000 0.000000 0.000000 0.000000 0.000000 10.000000 
Rope1_Seg09 0.000000 0.000000 0.000000 0.000000 0.000000 0.000000 10.000000 
L_mid_hand01 0.000000 0.000000 0.000000 0.000000 0.000000 0.000000 10.000000 
L_mid_hand02 0.000000 0.000000 0.000000 0.000000 0.000000 0.000000 10.000000 
L_mid_hand03 0.000000 0.000000 0.000000 0.000000 0.000000 0.000000 10.000000 
null_rope02_connect 0.000000 0.000000 0.000000 0.000000 0.000000 0.000000 10.000000 
Rope2_Seg01 0.000000 0.000000 0.000000 0.000000 0.000000 0.000000 10.000000 
Rope2_Seg02 0.000000 0.000000 0.000000 0.000000 0.000000 0.000000 10.000000 
Rope2_Seg03 0.000000 0.000000 0.000000 0.000000 0.000000 0.000000 10.000000 
Rope2_Seg04 0.000000 0.000000 0.000000 0.000000 0.000000 0.000000 10.000000 
Rope2_Seg05 0.000000 0.000000 0.000000 0.000000 0.000000 0.000000 10.000000 
Rope2_Seg06 0.000000 0.000000 0.000000 0.000000 0.000000 0.000000 10.000000 
Rope2_Seg07 0.000000 0.000000 0.000000 0.000000 0.000000 0.000000 10.000000 
Rope2_Seg09 0.000000 0.000000 0.000000 0.000000 0.000000 0.000000 10.000000 
R_mid_hand01 0.000000 0.000000 0.000000 0.000000 0.000000 0.000000 10.000000 
R_mid_hand02 0.000000 0.000000 0.000000 0.000000 0.000000 0.000000 10.000000 
R_mid_hand03 0.000000 0.000000 0.000000 0.000000 0.000000 0.000000 10.000000 
spine02 0.000000 0.000000 0.000000 0.000000 0.000000 0.000000 10.000000 
spine03 0.000000 0.000000 0.000000 0.000000 0.000000 0.000000 10.000000 
pelvis 0.000000 0.000000 0.000000 0.000000 0.000000 0.000000 10.000000 
null_rope03_connect 0.000000 0.000000 0.000000 0.000000 0.000000 0.000000 10.000000 
null_rope04_connect 0.000000 0.000000 0.000000 0.000000 0.000000 0.000000 10.000000 
Rope3_Seg01 0.000000 0.000000 0.000000 0.000000 0.000000 0.000000 10.000000 
Rope3_Seg02 0.000000 0.000000 0.000000 0.000000 0.000000 0.000000 10.000000 
Rope3_Seg03 0.000000 0.000000 0.000000 0.000000 0.000000 0.000000 10.000000 
Rope3_Seg04 0.000000 0.000000 0.000000 0.000000 0.000000 0.000000 10.000000 
Rope3_Seg05 0.000000 0.000000 0.000000 0.000000 0.000000 0.000000 10.000000 
Rope3_Seg06 0.000000 0.000000 0.000000 0.000000 0.000000 0.000000 10.000000 
Rope3_Seg07 0.000000 0.000000 0.000000 0.000000 0.000000 0.000000 10.000000 
Rope3_Seg08 0.000000 0.000000 0.000000 0.000000 0.000000 0.000000 10.000000 
Rope3_Seg09 0.000000 0.000000 0.000000 0.000000 0.000000 0.000000 10.000000 
R_rear_hand01 0.000000 0.000000 0.000000 0.000000 0.000000 0.000000 10.000000 
R_rear_hand02 0.000000 0.000000 0.000000 0.000000 0.000000 0.000000 10.000000 
R_rear_hand03 0.000000 0.000000 0.000000 0.000000 0.000000 0.000000 10.000000 
Rope4_Seg01 0.000000 0.000000 0.000000 0.000000 0.000000 0.000000 10.000000 
Rope4_Seg02 0.000000 0.000000 0.000000 0.000000 0.000000 0.000000 10.000000 
Rope4_Seg03 0.000000 0.000000 0.000000 0.000000 0.000000 0.000000 10.000000 
Rope4_Seg04 0.000000 0.000000 0.000000 0.000000 0.000000 0.000000 10.000000 
Rope4_Seg05 0.000000 0.000000 0.000000 0.000000 0.000000 0.000000 10.000000 
Rope4_Seg06 0.000000 0.000000 0.000000 0.000000 0.000000 0.000000 10.000000 
Rope4_Seg07 0.000000 0.000000 0.000000 0.000000 0.000000 0.000000 10.000000 
Rope4_Seg08 0.000000 0.000000 0.000000 0.000000 0.000000 0.000000 10.000000 
Rope4_Seg09 0.000000 0.000000 0.000000 0.000000 0.000000 0.000000 10.000000 
L_rear_hand01 0.000000 0.000000 0.000000 0.000000 0.000000 0.000000 10.000000 
L_rear_hand02 0.000000 0.000000 0.000000 0.000000 0.000000 0.000000 10.000000 
L_rear_hand03 0.000000 0.000000 0.000000 0.000000 0.000000 0.000000 10.000000 
#Beginning of Data. Separated by tabs
#Fr	Tx	Ty	Tz	Rx	Ry	Rz	SF
[MASTER]
7 -729.567932 999.552063 -201.914917 0.001660 0.001660 0.001660 1253.851440
8 -812.841309 1279.714111 -238.750168 0.001660 0.001660 0.001660 1534.724976
[root]
7 206.717194 -161.688553 582.948059 -27.649174 3.293544 -80.653252 639.299377
8 191.916504 -184.776627 584.348755 -32.932503 2.877272 -77.663094 642.213196
[chest]
7 -84.512650 -34.090519 0.000000 31.073332 12.570777 173.069839 91.129311
8 -84.512650 -34.090519 0.000000 26.815901 8.458928 170.119980 91.129311
[L_mid_tent01]
7 27.298996 22.179281 -249.918762 -16.730858 9.165298 32.676239 252.381729
8 27.299009 22.179270 -249.918762 -17.778399 7.730520 28.232035 252.381729
[R_mid_tent01]
7 23.228794 24.509907 226.238495 154.786087 -38.353142 17.651896 228.744751
8 23.228794 24.509907 226.238495 154.892395 -24.146723 8.799512 228.744751
[spine01]
7 -0.361383 -0.195265 0.000000 0.001706 0.001612 3.241512 0.410763
8 -0.361383 -0.195265 0.000000 0.001699 0.001619 2.776462 0.410763
[Bip01_Neck]
7 165.484543 71.581718 0.000119 176.643677 -1.657967 43.431911 180.302734
8 165.484543 71.581718 0.000119 176.643677 -1.657967 43.431911 180.302734
[L_humerus]
7 -13.983130 -135.272980 -120.471481 179.758575 -15.420962 -147.453491 181.680161
8 -13.983130 -135.272980 -120.471481 -179.214005 -16.967987 -149.186523 181.680161
[R_humerus]
7 -13.983309 -135.273102 125.287651 174.643982 13.005611 -143.926666 184.909012
8 -13.983309 -135.273102 125.287651 173.326416 14.355500 -147.833618 184.909012
[weapon_bone]
7 235.964890 -300.705902 0.000000 0.000000 -89.951546 -128.212341 382.234833
8 235.964890 -300.705902 0.000000 0.000000 -89.951546 -128.212341 382.234833
[Bip01_Head]
7 213.355759 185.961716 8.599395 0.617599 1.385587 -39.575680 283.154358
8 213.362213 185.943649 8.832604 -1.163251 1.594181 -40.027927 283.154541
[eye_left_bone]
7 -24.626970 125.451866 -64.772606 0.000000 -90.000000 -99.840431 143.318359
8 -24.626970 125.451866 -64.772606 0.000000 -90.000000 -99.840431 143.318359
[eye_right_bone]
7 -24.626970 125.451866 64.327362 0.000000 -89.965736 80.156380 143.117676
8 -24.626970 125.451866 64.327362 0.000000 -89.965736 80.156380 143.117676
[L_forearm]
7 322.776093 0.000000 -0.000119 0.000422 -0.002309 -110.738457 322.776093
8 322.776093 0.000000 -0.000119 0.000421 -0.002309 -110.646790 322.776093
[L_front_hand]
7 241.149185 -0.042021 -3.300071 -178.667953 -1.835447 -27.422342 241.171753
8 241.149185 -0.042021 -3.300071 -178.667953 -1.835447 -27.422350 241.171753
[L_weapon_bone]
7 156.183838 0.000000 0.000000 0.000014 0.000007 0.000001 156.183838
8 156.183838 0.000000 0.000000 0.000014 0.000007 0.000001 156.183838
[L_front_hand01_01]
7 86.095154 20.947098 -0.655860 -0.365735 -0.477812 75.179466 88.609184
8 86.095154 20.947098 -0.655860 -0.366594 -0.477154 75.385574 88.609184
[L_front_hand02_01]
7 86.935165 -11.437475 24.513514 154.083481 -59.794327 -61.001266 91.046425
8 86.935165 -11.437475 24.513514 154.399796 -59.883835 -61.369587 91.046425
[L_front_hand03_01]
7 86.637497 -14.123976 -20.424902 -153.626999 58.028248 -62.364834 90.126129
8 86.637497 -14.123976 -20.424902 -153.913849 58.118122 -62.702866 90.126129
[L_front_hand01_02]
7 71.020905 -0.000179 0.000030 0.000329 -0.002324 -106.115456 71.020905
8 71.020905 -0.000179 0.000030 0.000331 -0.002324 -106.206635 71.020905
[L_front_hand02_02]
7 71.020927 -0.000119 0.000060 0.000329 -0.002324 -106.115456 71.020927
8 71.020927 -0.000119 0.000060 0.000331 -0.002324 -106.206635 71.020927
[L_front_hand03_02]
7 71.020905 -0.000060 0.000060 0.000329 -0.002324 -106.115456 71.020905
8 71.020905 -0.000060 0.000060 0.000331 -0.002324 -106.206635 71.020905
[R_forearm]
7 322.776428 -0.000060 0.000030 0.201324 0.067525 -109.407593 322.776428
8 322.776428 -0.000060 0.000030 0.201385 0.067346 -109.305634 322.776428
[R_front_hand]
7 238.847015 -0.006795 2.210259 -2.635298 -10.645461 -26.312506 238.857239
8 238.847015 -0.006795 2.210259 -2.635298 -10.645461 -26.312506 238.857239
[R_weapon_bone]
7 155.664093 0.002503 -0.000030 0.003487 0.001180 -90.988930 155.664078
8 155.664093 0.002503 -0.000030 0.003487 0.001180 -90.988930 155.664078
[R_front_hand01_01]
7 87.624611 14.231146 22.918642 -154.633499 -59.950619 61.746044 91.683487
8 87.624611 14.231146 22.918642 -154.633484 -59.950607 61.746033 91.683487
[R_front_hand02_01]
7 89.356956 14.367283 -19.491137 154.602661 58.302849 63.744389 92.579636
8 89.356956 14.367283 -19.491137 154.602661 58.302856 63.744389 92.579636
[R_front_hand03_01]
7 87.286232 -22.307278 -0.143439 0.162155 -0.423168 -75.767921 90.091743
8 87.286232 -22.307278 -0.143439 0.162155 -0.423168 -75.767906 90.091743
[R_front_hand01_02]
7 71.020905 0.000060 0.000119 0.002323 -0.000334 106.381714 71.020905
8 71.020905 0.000060 0.000119 0.002323 -0.000334 106.381714 71.020905
[R_front_hand02_02]
7 71.020844 -0.000030 -0.000119 0.002323 -0.000334 106.381714 71.020836
8 71.020844 -0.000030 -0.000119 0.002323 -0.000334 106.381714 71.020836
[R_front_hand03_02]
7 71.020905 0.000000 0.000030 0.002323 -0.000334 106.381714 71.020905
8 71.020905 0.000000 0.000030 0.002323 -0.000334 106.381714 71.020905
[null_rope01_connect]
7 328.732483 0.000000 -0.000238 8.745214 -45.950985 41.084957 328.732483
8 328.732483 0.000000 -0.000238 15.435642 -50.466213 38.928207 328.732483
[Rope1_Seg01]
7 -0.000008 -0.000059 0.000040 119.246010 58.233894 -36.995380 0.000072
8 -0.000003 -0.000058 0.000046 100.638824 21.081944 -65.104614 0.000074
[Rope1_Seg02]
7 139.999863 -0.000179 0.000000 -5.016343 16.783226 10.487864 139.999863
8 139.999863 -0.000179 0.000000 2.160201 8.748369 0.658059 139.999863
[Rope1_Seg03]
7 139.999924 0.000060 -0.000060 -4.997746 13.648136 10.939522 139.999924
8 139.999924 0.000060 -0.000060 2.306893 8.895050 3.664690 139.999924
[Rope1_Seg04]
7 139.999924 -0.000060 -0.000119 -3.187196 5.204326 15.026608 139.999924
8 139.999924 -0.000060 -0.000119 3.446150 1.326203 15.117784 139.999924
[Rope1_Seg05]
7 139.999832 0.000119 -0.000060 -1.129606 3.070066 10.023148 139.999832
8 139.999832 0.000119 -0.000060 1.790021 1.171971 4.948250 139.999832
[Rope1_Seg06]
7 139.999954 0.000119 -0.000060 -0.315650 1.660523 5.435016 139.999954
8 139.999954 0.000119 -0.000060 1.148751 0.779979 2.804268 139.999954
[Rope1_Seg07]
7 139.999985 0.000060 0.000000 -0.052582 0.417774 1.401139 139.999985
8 139.999985 0.000060 0.000000 0.404503 0.275356 0.927491 139.999985
[Rope1_Seg09]
7 121.602913 0.000119 -0.000089 -89.793175 -1.359789 0.847147 121.602913
8 121.602913 0.000119 -0.000089 -89.793175 -1.359789 0.847147 121.602913
[L_mid_hand01]
7 103.859421 1.038730 8.195221 127.259537 -65.827805 -35.291592 104.187431
8 103.859421 1.038730 8.195221 129.626846 -67.120308 -37.870647 104.187431
[L_mid_hand02]
7 105.572853 -4.139662 -10.864139 -166.855911 42.938663 -70.481232 106.211075
8 105.572853 -4.139662 -10.864139 -168.368393 43.288792 -72.692970 106.211075
[L_mid_hand03]
7 104.641464 17.579376 -3.913581 -6.726686 17.558281 72.545174 106.179977
8 104.641464 17.579376 -3.913581 -6.202894 17.745815 74.264961 106.179977
[null_rope02_connect]
7 328.732849 0.000179 -0.000119 -127.997528 25.345264 -46.919495 328.732849
8 328.732849 0.000179 -0.000119 -132.877625 40.509323 -46.119808 328.732849
[Rope2_Seg01]
7 0.000042 0.000192 0.000000 -134.682480 -64.998009 -58.820625 0.000197
8 0.000040 0.000199 0.000000 -65.055855 -19.874969 -64.124626 0.000203
[Rope2_Seg02]
7 139.999741 -0.000060 -0.000119 -3.158323 -21.458065 9.380697 139.999756
8 139.999741 -0.000060 -0.000119 -21.108353 -7.119791 -3.651380 139.999756
[Rope2_Seg03]
7 140.000107 0.000030 0.000000 -1.665546 -8.403705 3.377900 140.000107
8 140.000107 0.000030 0.000000 -13.620921 -1.417492 -3.994230 140.000107
[Rope2_Seg04]
7 139.999802 0.000000 -0.000060 -8.927570 -7.244166 1.944816 139.999802
8 139.999802 0.000000 -0.000060 -14.219585 -3.903088 -2.523715 139.999802
[Rope2_Seg05]
7 139.999985 -0.000060 0.000119 -44.202759 -6.018196 0.496890 139.999985
8 139.999985 -0.000060 0.000119 -15.857198 -4.133642 -2.110816 139.999985
[Rope2_Seg06]
7 139.999893 -0.000030 -0.000119 -71.298607 -2.979034 -2.348508 139.999893
8 139.999893 -0.000030 -0.000119 -9.664152 -1.478565 -1.655406 139.999893
[Rope2_Seg07]
7 139.999893 0.000060 -0.000060 -19.815783 0.904458 -2.536288 139.999893
8 139.999893 0.000060 -0.000060 -6.290730 -0.683147 -1.194186 139.999893
[Rope2_Seg09]
7 121.338966 0.000089 -0.000060 33.793236 -1.359788 -0.847141 121.338966
8 121.338966 0.000089 -0.000060 33.793236 -1.359788 -0.847141 121.338966
[R_mid_hand01]
7 104.680779 11.144459 -10.335981 -28.452431 39.732548 52.440491 105.778534
8 104.680779 11.144459 -10.335981 -25.192705 41.648338 57.439438 105.778534
[R_mid_hand02]
7 104.070427 2.443552 8.231699 63.902248 -55.673180 22.560619 104.424065
8 104.070427 2.443552 8.231699 60.800922 -59.436081 26.232454 104.424065
[R_mid_hand03]
7 106.028137 -11.221827 -5.996406 -173.263260 14.340710 -61.789799 106.788818
8 106.028137 -11.221827 -5.996406 -174.361160 14.799507 -66.152649 106.788818
[spine02]
7 129.756927 0.001550 0.000119 0.491389 -4.029941 -14.829000 129.756927
8 129.756927 0.001550 0.000119 0.481902 -4.031122 -14.698909 129.756927
[spine03]
7 78.613937 0.081081 -4.898975 1.976682 3.789260 17.701117 78.766479
8 78.613922 0.081114 -4.898967 1.971990 3.791780 17.628881 78.766457
[pelvis]
7 169.435242 0.051022 0.000000 0.006339 -0.191148 -5.767464 169.435257
8 169.435242 0.051022 0.000000 0.008322 -0.191072 -6.956277 169.435257
[null_rope03_connect]
7 -1.257226 -2.466202 137.391083 1.662639 -26.520031 79.081505 137.418976
8 -1.257226 -2.466202 137.391083 5.043981 -31.434023 76.597420 137.418976
[null_rope04_connect]
7 -1.259640 -2.480268 -137.844437 1.662639 -26.520031 79.081505 137.872513
8 -1.259640 -2.480268 -137.844437 5.043981 -31.434023 76.597420 137.872513
[Rope3_Seg01]
7 0.000000 0.000000 0.000000 17.073566 -7.262337 -77.266647 0.000000
8 0.000000 0.000000 0.000000 16.646194 6.776872 -81.656616 0.000000
[Rope3_Seg02]
7 139.999924 -0.000119 0.000060 1.491600 10.129891 16.581371 139.999924
8 139.999924 -0.000119 0.000060 -0.086453 1.596776 11.832912 139.999924
[Rope3_Seg03]
7 139.999924 -0.000119 0.000119 2.747359 9.582462 5.073769 139.999924
8 139.999924 -0.000119 0.000119 0.061394 2.860932 5.561109 139.999924
[Rope3_Seg04]
7 139.999924 0.000119 0.000000 -1.744199 -0.297724 5.048069 139.999924
8 139.999924 0.000119 0.000000 -0.479214 0.447080 3.571216 139.999924
[Rope3_Seg05]
7 139.999924 -0.000238 0.000060 -8.784075 -9.790934 8.896891 139.999924
8 139.999924 -0.000238 0.000060 -2.266871 -4.342732 4.950177 139.999924
[Rope3_Seg06]
7 139.999893 -0.000119 -0.000060 -9.070686 -12.018860 7.606891 139.999893
8 139.999893 -0.000119 -0.000060 -4.099242 -8.284974 6.946238 139.999893
[Rope3_Seg07]
7 139.999771 0.000060 -0.000119 -4.498683 -7.267680 3.933336 139.999771
8 139.999771 0.000060 -0.000119 -3.172528 -6.531014 5.725253 139.999771
[Rope3_Seg08]
7 139.999985 -0.000060 0.000000 -2.478973 -4.910083 2.192622 139.999985
8 139.999985 -0.000060 0.000000 -2.358344 -5.289257 4.216689 139.999985
[Rope3_Seg09]
7 90.185997 -0.000179 -0.000060 89.793228 -1.359877 -0.847183 90.185997
8 90.185997 -0.000179 -0.000060 89.793228 -1.359877 -0.847183 90.185997
[R_rear_hand01]
7 103.366196 -6.073594 -10.757982 -171.684540 23.302576 -59.125813 104.101845
8 103.366196 -6.073594 -10.757982 -173.471786 23.840071 -63.595016 104.101845
[R_rear_hand02]
7 100.509819 12.039542 -7.992327 -21.930742 32.777508 56.381893 101.543350
8 100.509819 12.039542 -7.992327 -19.370892 34.238888 61.013905 101.543350
[R_rear_hand03]
7 101.539970 5.215704 5.435467 79.009148 -58.663559 13.282343 101.819031
8 101.539970 5.215704 5.435467 77.523720 -62.710114 14.990744 101.819031
[Rope4_Seg01]
7 -0.000024 -0.000108 0.000000 -35.130104 40.855137 -21.330307 0.000110
8 -0.000025 -0.000119 0.000000 -48.221367 34.340767 -31.773504 0.000122
[Rope4_Seg02]
7 139.999985 0.000060 0.000119 -4.386422 -0.292855 -7.292339 139.999985
8 139.999985 0.000060 0.000119 -8.567464 2.321472 -10.972469 139.999985
[Rope4_Seg03]
7 139.999924 0.000000 -0.000238 -7.057415 0.349427 -9.902709 139.999924
8 139.999924 0.000000 -0.000238 -12.325501 4.945773 -14.242709 139.999924
[Rope4_Seg04]
7 139.999985 0.000000 0.000119 -13.148870 2.358330 -15.291354 139.999985
8 139.999985 0.000000 0.000119 -11.759491 8.068277 -13.014609 139.999985
[Rope4_Seg05]
7 139.999802 -0.000060 -0.000119 -4.479826 2.062666 -4.679046 139.999802
8 139.999802 -0.000060 -0.000119 -0.560494 1.929660 -0.190794 139.999802
[Rope4_Seg06]
7 139.999924 0.000000 0.000060 0.609402 -0.115171 0.579702 139.999924
8 139.999924 0.000000 0.000060 -0.327297 1.118672 -0.258726 139.999924
[Rope4_Seg07]
7 139.999802 0.000000 0.000000 -0.873911 0.572597 -1.016627 139.999802
8 139.999802 0.000000 0.000000 -0.468891 1.072453 -0.601189 139.999802
[Rope4_Seg08]
7 139.999924 0.000000 0.000119 -2.072731 0.366326 -0.623287 139.999924
8 139.999924 0.000000 0.000119 -1.810719 0.663569 -0.369915 139.999924
[Rope4_Seg09]
7 90.185791 0.000060 0.000060 -135.617828 2.228885 0.850567 90.185791
8 90.185791 0.000060 0.000060 -135.617828 2.228885 0.850567 90.185791
[L_rear_hand01]
7 101.696655 -8.392275 -7.654577 -15.108216 -36.116425 111.587547 102.329041
8 101.696655 -8.392275 -7.654577 -13.923420 -36.530060 109.589493 102.329041
[L_rear_hand02]
7 102.726799 -1.568258 5.773216 74.068176 68.846573 161.228745 102.900848
8 102.726799 -1.568258 5.773216 72.781403 70.438133 159.855743 102.900848
[L_rear_hand03]
7 104.552910 9.721220 -10.420293 -176.295319 -24.403801 -109.500809 105.519653
8 104.552910 9.721220 -10.420293 -177.047592 -24.499748 -107.680977 105.519653
